<?xml version="1.0" encoding="UTF-8"?>
<svg xmlns="http://www.w3.org/2000/svg" version="1.1" viewBox="0 0 2000 2000">
  <defs>
    <style>
      .cls-1 {
        fill: #fff;
      }

      .cls-2 {
        fill: #1e1a4d;
      }
    </style>
  </defs>
  <!-- Generator: Adobe Illustrator 28.6.0, SVG Export Plug-In . SVG Version: 1.2.0 Build 709)  -->
  <g>
    <g id="Layer_1">
      <g>
        <g>
          <g>
            <path class="cls-1" d="M954.58,1035.28c-21.64,0-40.43-4.79-56.36-14.37-15.93-9.57-28.24-22.45-36.95-38.63-8.71-16.17-13.06-34.08-13.06-53.75s4.54-38.57,13.62-54.49c9.08-15.92,21.33-28.49,36.76-37.7,15.42-9.2,32.84-13.81,52.25-13.81,16.17,0,30.48,2.55,42.92,7.65,12.44,5.1,22.96,12.26,31.54,21.46,8.58,9.21,15.12,19.84,19.6,31.91,4.48,12.07,6.72,25.2,6.72,39.38,0,3.98-.19,7.9-.56,11.75-.37,3.86-1.06,7.16-2.06,9.89h-152.65v-41.06h120.93l-26.5,19.41c2.48-10.7,2.36-20.21-.37-28.55-2.74-8.33-7.53-14.93-14.37-19.78-6.85-4.85-15.25-7.28-25.2-7.28s-18.04,2.37-25,7.09c-6.97,4.73-12.2,11.7-15.68,20.9-3.49,9.21-4.85,20.41-4.1,33.59-1,11.45.37,21.52,4.1,30.23,3.73,8.71,9.46,15.49,17.17,20.34,7.71,4.85,17.04,7.28,27.99,7.28,9.95,0,18.47-1.99,25.57-5.97,7.09-3.98,12.63-9.45,16.61-16.42l44.79,21.27c-3.98,9.96-10.26,18.66-18.85,26.13-8.58,7.46-18.73,13.25-30.42,17.35-11.7,4.11-24.51,6.16-38.45,6.16Z"/>
            <path class="cls-1" d="M1084.46,1105.45v-278.43h52.25v38.82l-4.85-11.2c6.72-10.2,15.86-18.1,27.43-23.7,11.57-5.6,24.82-8.4,39.75-8.4,19.41,0,36.95,4.73,52.63,14.18,15.68,9.46,28.11,22.21,37.32,38.26,9.2,16.05,13.81,34.03,13.81,53.93s-4.54,37.57-13.62,53.75c-9.08,16.18-21.46,28.99-37.14,38.44-15.68,9.46-33.47,14.18-53.37,14.18-13.94,0-26.81-2.55-38.63-7.65-11.82-5.09-21.34-12.63-28.55-22.58l8.96-11.57v111.97h-55.99ZM1191.95,984.89c10.45,0,19.65-2.36,27.62-7.09,7.96-4.72,14.18-11.32,18.66-19.78,4.48-8.46,6.72-18.16,6.72-29.11s-2.24-20.58-6.72-28.92c-4.48-8.33-10.7-14.93-18.66-19.78-7.97-4.85-17.17-7.28-27.62-7.28s-18.85,2.37-26.68,7.09c-7.84,4.73-13.94,11.33-18.29,19.78-4.36,8.46-6.53,18.17-6.53,29.11s2.17,20.66,6.53,29.11c4.35,8.46,10.45,15.06,18.29,19.78,7.84,4.73,16.73,7.09,26.68,7.09Z"/>
            <path class="cls-1" d="M1415.52,1035.28c-22.4,0-41.87-5.28-58.41-15.86-16.55-10.57-27.81-24.82-33.78-42.74l41.06-19.41c5.23,10.95,12.32,19.54,21.27,25.75,8.96,6.22,18.91,9.33,29.86,9.33,7.96,0,14.05-1.62,18.29-4.85,4.23-3.23,6.35-7.71,6.35-13.43,0-2.98-.75-5.53-2.24-7.65-1.49-2.11-3.73-4.04-6.72-5.79-2.98-1.74-6.72-3.23-11.2-4.48l-34.71-9.71c-16.67-4.72-29.49-12.37-38.45-22.95-8.96-10.57-13.43-23.08-13.43-37.51,0-12.69,3.23-23.76,9.7-33.22,6.47-9.46,15.55-16.86,27.25-22.21,11.69-5.35,25.13-8.02,40.31-8.02,19.91,0,37.38,4.67,52.44,14,15.05,9.33,25.69,22.46,31.91,39.37l-41.43,19.41c-2.98-8.46-8.4-15.24-16.23-20.34-7.84-5.1-16.74-7.65-26.69-7.65-7.22,0-12.88,1.49-16.98,4.48-4.1,2.99-6.16,7.09-6.16,12.32,0,2.74.75,5.23,2.24,7.47,1.49,2.24,3.92,4.23,7.28,5.97,3.36,1.74,7.52,3.36,12.5,4.85l32.47,9.71c16.92,4.98,29.86,12.5,38.82,22.58,8.96,10.08,13.43,22.46,13.43,37.14,0,12.69-3.3,23.76-9.89,33.22-6.6,9.46-15.74,16.86-27.44,22.21-11.7,5.35-25.51,8.02-41.43,8.02Z"/>
          </g>
          <g>
            <path class="cls-1" d="M858.33,1173.92l-10.13-36.8h6.18l8.2,31.86h-1.53l8.5-31.86h6.08l8.5,31.86h-1.58l8.25-31.86h6.13l-10.08,36.8h-6.57l-8.55-31.37h1.73l-8.6,31.37h-6.52Z"/>
            <path class="cls-1" d="M906.2,1173.92v-36.8h24.25v5.19h-18.43v10.57h17.44v5.19h-17.44v10.67h18.43v5.19h-24.25Z"/>
            <path class="cls-1" d="M954.41,1173.92v-36.8h24.25v5.19h-18.43v10.57h17.44v5.19h-17.44v10.67h18.43v5.19h-24.25Z"/>
            <path class="cls-1" d="M989.04,1173.92v-36.8h4.69l20.65,28.5-2.22.35v-28.85h5.78v36.8h-4.69l-20.5-28.7,2.12-.4v29.1h-5.83Z"/>
            <path class="cls-1" d="M1030.48,1173.92v-36.8h24.25v5.19h-18.43v10.57h17.44v5.19h-17.44v10.67h18.43v5.19h-24.25Z"/>
            <path class="cls-1" d="M1065.11,1173.92v-36.8h13.39c2.47,0,4.64.45,6.52,1.36,1.88.91,3.35,2.22,4.42,3.95,1.07,1.73,1.6,3.8,1.6,6.2,0,2.54-.63,4.71-1.9,6.52-1.27,1.81-2.97,3.13-5.11,3.95l8.5,14.82h-6.62l-9.04-16.05,3.8,2.22h-9.73v13.83h-5.83ZM1070.94,1154.9h7.66c1.35,0,2.52-.27,3.51-.79s1.75-1.26,2.3-2.2c.54-.94.82-2.05.82-3.33s-.27-2.39-.82-3.33c-.54-.94-1.31-1.66-2.3-2.17-.99-.51-2.16-.77-3.51-.77h-7.66v12.6Z"/>
            <path class="cls-1" d="M1119.6,1174.51c-2.6,0-5.01-.48-7.24-1.43-2.22-.96-4.17-2.28-5.83-3.98-1.66-1.69-2.96-3.7-3.88-6-.92-2.31-1.39-4.84-1.39-7.61s.45-5.26,1.36-7.58c.9-2.32,2.18-4.33,3.83-6.02,1.64-1.7,3.57-3.02,5.78-3.95s4.63-1.41,7.26-1.41,4.93.45,6.99,1.34c2.06.89,3.79,2.05,5.21,3.48,1.41,1.43,2.44,2.99,3.06,4.67l-5.19,2.52c-.76-2.01-2.01-3.63-3.76-4.87-1.74-1.24-3.85-1.85-6.32-1.85s-4.59.58-6.47,1.73c-1.88,1.15-3.33,2.75-4.37,4.79-1.04,2.05-1.55,4.43-1.55,7.16s.53,5.13,1.6,7.19c1.07,2.06,2.54,3.65,4.42,4.79,1.88,1.14,4.03,1.71,6.47,1.71,2.04,0,3.91-.42,5.61-1.26,1.69-.84,3.06-2.02,4.08-3.56,1.02-1.53,1.53-3.32,1.53-5.36v-2.52l2.62,2.37h-13.93v-4.94h17.09v3.46c0,2.7-.46,5.11-1.38,7.24-.92,2.12-2.17,3.93-3.75,5.41-1.58,1.48-3.39,2.6-5.43,3.36-2.05.76-4.18,1.14-6.42,1.14Z"/>
            <path class="cls-1" d="M1147.46,1173.92v-36.8h5.83v36.8h-5.83Z"/>
            <path class="cls-1" d="M1162.87,1173.92v-4.45l18.87-27.17h-17.78v-5.19h25.24v4.4l-18.87,27.22h19.31v5.19h-26.78Z"/>
            <path class="cls-1" d="M1199.23,1173.92v-36.8h24.25v5.19h-18.43v10.57h17.44v5.19h-17.44v10.67h18.43v5.19h-24.25Z"/>
            <path class="cls-1" d="M1247.44,1173.92v-36.8h13.39c2.47,0,4.65.45,6.54,1.36,1.89.91,3.37,2.22,4.42,3.95,1.05,1.73,1.58,3.8,1.58,6.2s-.54,4.41-1.6,6.13c-1.07,1.71-2.54,3.03-4.42,3.95-1.88.92-4.05,1.39-6.52,1.39h-7.56v13.83h-5.83ZM1253.27,1154.9h7.71c1.31,0,2.47-.27,3.46-.79.99-.53,1.76-1.26,2.32-2.2.56-.94.84-2.05.84-3.33s-.28-2.39-.84-3.33c-.56-.94-1.33-1.66-2.32-2.17-.99-.51-2.14-.77-3.46-.77h-7.71v12.6Z"/>
            <path class="cls-1" d="M1278.06,1173.92l12.94-36.8h7.21l12.94,36.8h-6.22l-2.82-8.25h-14.97l-2.87,8.25h-6.22ZM1288.83,1160.49h11.51l-6.52-19.26h1.63l-6.62,19.26Z"/>
            <path class="cls-1" d="M1326.32,1173.92v-16.6l-12.59-20.2h6.57l10.08,16.35h-2.32l10.03-16.35h6.57l-12.55,20.2v16.6h-5.78Z"/>
            <path class="cls-1" d="M1353.94,1173.92v-36.8h5.43l13.83,19.17h-2.72l13.58-19.17h5.43v36.8h-5.78v-29.93l2.17.59-13.88,18.97h-.59l-13.59-18.97,1.93-.59v29.93h-5.83Z"/>
            <path class="cls-1" d="M1402.05,1173.92v-36.8h24.25v5.19h-18.43v10.57h17.44v5.19h-17.44v10.67h18.43v5.19h-24.25Z"/>
            <path class="cls-1" d="M1436.68,1173.92v-36.8h4.69l20.65,28.5-2.22.35v-28.85h5.78v36.8h-4.69l-20.5-28.7,2.12-.4v29.1h-5.83Z"/>
            <path class="cls-1" d="M1484.64,1173.92v-31.61h-9.78v-5.19h25.19v5.19h-9.63v31.61h-5.78Z"/>
            <path class="cls-1" d="M1522.24,1174.51c-2.3,0-4.45-.43-6.42-1.31-1.97-.87-3.65-2.07-5.04-3.58-1.38-1.52-2.4-3.26-3.06-5.24l4.94-2.07c.89,2.27,2.19,4.02,3.9,5.24s3.69,1.83,5.93,1.83c1.32,0,2.47-.2,3.46-.62.99-.41,1.75-1,2.3-1.76.54-.76.81-1.63.81-2.62,0-1.35-.38-2.42-1.14-3.21-.76-.79-1.88-1.41-3.36-1.88l-6.91-2.17c-2.77-.86-4.88-2.16-6.32-3.93-1.45-1.76-2.17-3.83-2.17-6.2,0-2.07.51-3.89,1.53-5.46,1.02-1.56,2.43-2.79,4.22-3.68,1.79-.89,3.85-1.34,6.15-1.34s4.22.39,6.03,1.16c1.81.77,3.37,1.83,4.67,3.18s2.25,2.92,2.84,4.69l-4.84,2.12c-.72-1.94-1.85-3.44-3.38-4.5-1.53-1.05-3.3-1.58-5.31-1.58-1.22,0-2.29.2-3.21.62-.92.41-1.64,1.01-2.15,1.78-.51.77-.77,1.67-.77,2.69,0,1.19.38,2.24,1.14,3.16.76.92,1.91,1.61,3.46,2.07l6.42,2.03c2.93.89,5.14,2.16,6.62,3.83,1.48,1.67,2.22,3.73,2.22,6.2,0,2.04-.53,3.85-1.6,5.43-1.07,1.58-2.54,2.82-4.42,3.73-1.88.91-4.05,1.36-6.52,1.36Z"/>
          </g>
        </g>
        <polygon class="cls-2" points="602.59 978.72 462.96 1118.64 573.16 1118.64 658.67 1032.96 683.71 1032.96 542.79 1174.17 652.99 1174.17 808.79 1018.05 673.55 1018.05 813.23 878.07 703.03 878.07 617.47 963.81 591.44 963.81 732.42 822.53 622.22 822.53 466.42 978.66 602.59 978.72"/>
        <g>
          <path class="cls-1" d="M1501.89,843.39v-16.2h-5.02v-3.58h14.07v3.58h-4.94v16.2h-4.12Z"/>
          <path class="cls-1" d="M1512.99,843.39v-19.78h3.98l7.41,9.82h-1.86l7.2-9.82h3.98v19.78h-4.12v-15.24l1.65.37-7.62,9.83h-.53l-7.36-9.83,1.38-.37v15.24h-4.12Z"/>
        </g>
      </g>
    </g>
  </g>
</svg>